<svg width="44" height="44" viewBox="0 0 44 44" fill="none" xmlns="http://www.w3.org/2000/svg">
<path fill-rule="evenodd" clip-rule="evenodd" d="M37.5 22H29C28.6768 22.0008 28.5957 22.1112 28.4665 22.4217L26.5782 26.872C26.1891 27.79 25.324 29.385 24.3657 29.3936L24.3412 28.3936C23.3922 28.3913 22.5302 27.8134 22.1303 26.9113L18.7089 19.2453C18.6461 19.1061 18.6466 19.0117 18.5 19C18.5 19 18.0824 19.0613 18.0002 20.189L16.9933 20.7755C16.5398 21.4886 15.8177 22.0005 15 22H6.5C6.33656 22.0003 6.09564 23.0193 6.03208 23.1771C5.96851 23.3349 6.0011 23.5173 6.11486 23.6403L20.7781 39.4589C21.0989 39.8048 21.5397 40 22 40C22.4603 40 22.9011 39.8048 23.2219 39.4589L37.8851 23.6403C37.9989 23.5173 38.0315 23.3349 37.9679 23.1771C37.9044 23.0193 37.7407 22.0003 37.5772 22H37.5Z" fill="url(#paint0_linear)"/>
<path fill-rule="evenodd" clip-rule="evenodd" d="M40.9373 10.5837C39.4587 7.67231 36.7033 5.64759 33.5151 5.12972C30.3269 4.61185 27.0858 5.66255 24.7848 7.95997L22.563 10.014C22.2448 10.3084 21.7578 10.3084 21.4396 10.014L19.2179 7.95997C16.9168 5.66255 13.6758 4.61185 10.4876 5.12972C7.29936 5.64759 4.54392 7.67231 3.06535 10.5837C1.84825 13.0151 1.66576 15.846 2.56032 18.4175C2.67702 18.7561 2.99172 18.9832 3.34536 18.9839H13.9226C14.2013 18.9837 14.4615 18.8422 14.6159 18.6069L16.386 15.9122C16.8827 15.1443 17.7538 14.7136 18.6562 14.7897C19.5568 14.8587 20.3507 15.4152 20.7329 16.2452L24.0014 23.3572C24.0691 23.5079 24.2174 23.6047 24.3806 23.6047C24.5439 23.6047 24.6921 23.5079 24.7598 23.3572L26.0165 20.4834C26.418 19.5685 27.3127 18.979 28.3 18.9788H40.6523C41.0061 18.9791 41.3215 18.7527 41.439 18.4142C42.3336 15.8441 42.1524 13.0147 40.9373 10.5837Z" fill="url(#paint1_linear)"/>
<defs>
<linearGradient id="paint0_linear" x1="11.7866" y1="19" x2="19.0544" y2="42.4357" gradientUnits="userSpaceOnUse">
<stop stop-color="#06E5EB"/>
<stop offset="1" stop-color="#4FE0B6"/>
</linearGradient>
<linearGradient id="paint1_linear" x1="9.23323" y1="5" x2="14.0051" y2="26.7105" gradientUnits="userSpaceOnUse">
<stop stop-color="#06E5EB"/>
<stop offset="1" stop-color="#4FE0B6"/>
</linearGradient>
</defs>
</svg>
