<svg width="44" height="44" viewBox="0 0 44 44" fill="none" xmlns="http://www.w3.org/2000/svg">
<path fill-rule="evenodd" clip-rule="evenodd" d="M35.3379 27.9217C34.787 27.9702 34.2331 27.9702 33.6823 27.9217C33.4289 27.8995 33.178 27.9862 32.9909 28.1606C32.8038 28.335 32.6978 28.5809 32.6987 28.8383V30.7083C32.6987 36.0241 28.4411 40.3333 23.1891 40.3333C17.9371 40.3333 13.6795 36.0241 13.6795 30.7083V25.5017C18.9022 24.6036 22.7264 20.0285 22.7363 14.6667V9.16667C22.7278 5.91144 20.5971 3.05273 17.5069 2.1505C17.3857 2.11532 17.3022 2.00312 17.3022 1.8755V1.83333C17.3022 0.820811 16.4912 0 15.4908 0C14.4905 0 13.6795 0.820811 13.6795 1.83333V6.41667C13.6795 7.42919 14.4905 8.25 15.4908 8.25C16.4912 8.25 17.3022 7.42919 17.3022 6.41667C17.3019 6.33357 17.3482 6.25751 17.4217 6.2205C17.495 6.18357 17.5825 6.19136 17.6482 6.24067C18.5677 6.92542 19.1115 8.01125 19.1136 9.16667V14.6667C19.1136 18.7168 15.8697 22 11.8681 22C7.86659 22 4.62271 18.7168 4.62271 14.6667V9.16667C4.62251 8.00867 5.16655 6.91962 6.0881 6.23333C6.15381 6.18403 6.24131 6.17623 6.31452 6.21317C6.39043 6.25131 6.43721 6.33094 6.43406 6.41667C6.43406 7.42919 7.24504 8.25 8.24542 8.25C9.2458 8.25 10.0568 7.42919 10.0568 6.41667V1.83333C10.0568 0.820811 9.2458 0 8.24542 0C7.24504 0 6.43406 0.820811 6.43406 1.83333V1.8755C6.43472 2.00333 6.35096 2.11586 6.22938 2.1505C3.13917 3.05273 1.00848 5.91144 1 9.16667V14.6667C1.00983 20.0285 4.83409 24.6036 10.0568 25.5017V30.7083C10.0568 38.0491 15.9363 44 23.1891 44C30.4419 44 36.3214 38.0491 36.3214 30.7083V28.8365C36.3224 28.5791 36.2163 28.3331 36.0292 28.1588C35.8421 27.9844 35.5912 27.8977 35.3379 27.9198V27.9217Z" fill="url(#paint0_linear)"/>
<path d="M34.7857 7.7193C29.6968 7.7193 25.5714 11.8666 25.5714 16.9825C25.5714 22.0984 29.6968 26.2456 34.7857 26.2456C39.8746 26.2456 44 22.0984 44 16.9825C43.9939 11.8691 39.8721 7.72542 34.7857 7.7193ZM34.7857 22.5404C31.7324 22.5404 29.2572 20.052 29.2572 16.9825C29.2572 13.9129 31.7324 11.4246 34.7857 11.4246C37.8391 11.4246 40.3143 13.9129 40.3143 16.9825C40.3143 20.052 37.8391 22.5404 34.7857 22.5404Z" fill="url(#paint1_linear)"/>
<path d="M35.1696 19.2983C36.6539 19.2983 37.8571 18.0886 37.8571 16.5965C37.8571 15.1044 36.6539 13.8947 35.1696 13.8947C33.6854 13.8947 32.4821 15.1044 32.4821 16.5965C32.4821 18.0886 33.6854 19.2983 35.1696 19.2983Z" fill="url(#paint2_linear)"/>
<defs>
<linearGradient id="paint0_linear" x1="7.3872" y1="6.19402e-07" x2="30.9185" y2="39.9736" gradientUnits="userSpaceOnUse">
<stop stop-color="#06E5EB"/>
<stop offset="1" stop-color="#4FE0B6"/>
</linearGradient>
<linearGradient id="paint1_linear" x1="28.9039" y1="7.7193" x2="37.6881" y2="26.2097" gradientUnits="userSpaceOnUse">
<stop stop-color="#06E5EB"/>
<stop offset="1" stop-color="#4FE0B6"/>
</linearGradient>
<linearGradient id="paint2_linear" x1="33.4541" y1="13.8947" x2="36.0162" y2="19.2878" gradientUnits="userSpaceOnUse">
<stop stop-color="#06E5EB"/>
<stop offset="1" stop-color="#4FE0B6"/>
</linearGradient>
</defs>
</svg>
